<svg width="20" height="21" viewBox="0 0 20 21" fill="none" xmlns="http://www.w3.org/2000/svg">
<path fill-rule="evenodd" clip-rule="evenodd" d="M7.70679 14.8568C7.51926 15.0443 7.26495 15.1496 6.99979 15.1496C6.73462 15.1496 6.48031 15.0443 6.29279 14.8568L2.29279 10.8568C2.10532 10.6693 2 10.415 2 10.1498C2 9.88466 2.10532 9.63035 2.29279 9.44282L6.29279 5.44282C6.48139 5.26066 6.73399 5.15987 6.99619 5.16215C7.25838 5.16443 7.5092 5.26959 7.6946 5.455C7.88001 5.64041 7.98518 5.89122 7.98746 6.15342C7.98974 6.41562 7.88894 6.66822 7.70679 6.85682L5.41379 9.14982H16.9998C17.265 9.14982 17.5194 9.25518 17.7069 9.44271C17.8944 9.63025 17.9998 9.8846 17.9998 10.1498C17.9998 10.415 17.8944 10.6694 17.7069 10.8569C17.5194 11.0445 17.265 11.1498 16.9998 11.1498H5.41379L7.70679 13.4428C7.89426 13.6303 7.99957 13.8847 7.99957 14.1498C7.99957 14.415 7.89426 14.6693 7.70679 14.8568Z" fill="#3F83F8"/>
</svg>
