<svg width="18" height="21" viewBox="0 0 18 21" fill="none" xmlns="http://www.w3.org/2000/svg">
<path d="M9.00033 0.899902C7.09077 0.899902 5.25942 1.65847 3.90916 3.00873C2.5589 4.359 1.80033 6.19034 1.80033 8.0999V12.4031L0.95193 13.2515C0.784159 13.4193 0.669911 13.6331 0.62363 13.8659C0.577349 14.0986 0.601113 14.3398 0.691917 14.5591C0.782721 14.7783 0.936488 14.9657 1.13378 15.0976C1.33107 15.2294 1.56303 15.2999 1.80033 15.2999H16.2003C16.4376 15.2999 16.6696 15.2294 16.8669 15.0976C17.0642 14.9657 17.2179 14.7783 17.3087 14.5591C17.3995 14.3398 17.4233 14.0986 17.377 13.8659C17.3307 13.6331 17.2165 13.4193 17.0487 13.2515L16.2003 12.4031V8.0999C16.2003 6.19034 15.4418 4.359 14.0915 3.00873C12.7412 1.65847 10.9099 0.899902 9.00033 0.899902V0.899902ZM9.00033 20.0999C8.04555 20.0999 7.12988 19.7206 6.45475 19.0455C5.77961 18.3704 5.40033 17.4547 5.40033 16.4999H12.6003C12.6003 17.4547 12.221 18.3704 11.5459 19.0455C10.8708 19.7206 9.95511 20.0999 9.00033 20.0999Z" fill="black"/>
</svg>
