<svg width="24" height="26" viewBox="0 0 24 26" fill="none" xmlns="http://www.w3.org/2000/svg">
<path fill-rule="evenodd" clip-rule="evenodd" d="M14.811 0.254188C15.2542 0.370988 15.6254 0.673359 15.8318 1.08456C16.6046 2.63176 17.1822 3.57101 17.763 4.33261C18.3518 5.10381 18.9726 5.73417 19.9198 6.67977C22.1054 8.86697 23.1998 11.7358 23.1998 14.5998C23.1998 17.4638 22.1054 20.3326 19.9198 22.5198C15.5454 26.8926 8.45421 26.8926 4.07981 22.5198C1.89421 20.3326 0.799805 17.4638 0.799805 14.5998C0.799805 11.7358 1.89421 8.86697 4.07981 6.67977C4.53741 6.22217 5.2254 6.08617 5.8238 6.33417C6.4222 6.58057 6.81101 7.16462 6.81101 7.81102C6.81101 9.60302 6.923 10.9678 7.4478 12.0574C7.7358 12.6558 8.18542 13.2414 8.95982 13.7646C9.14542 12.067 9.48461 9.99821 9.94221 8.03661C10.3022 6.49101 10.7502 4.9486 11.2846 3.6622C11.5518 3.0174 11.8542 2.40615 12.1966 1.87655C12.5294 1.36135 12.9582 0.838241 13.5118 0.468641C13.8942 0.214241 14.3678 0.135788 14.811 0.254188ZM15.3934 21.1933C13.5198 23.0685 10.4798 23.0685 8.6062 21.1933C7.6686 20.2573 7.19981 19.0286 7.19981 17.7998C7.19981 17.7998 8.60621 18.5998 11.1998 18.5998C11.1998 16.9998 11.9998 12.1998 13.1998 11.3998C13.9998 12.9998 14.4574 13.4686 15.3934 14.4062C16.331 15.3422 16.7998 16.571 16.7998 17.7998C16.7998 19.0286 16.331 20.2573 15.3934 21.1933Z" fill="#F05252"/>
</svg>
