<svg width="25" height="25" viewBox="0 0 25 25" fill="none" xmlns="http://www.w3.org/2000/svg">
<path fill-rule="evenodd" clip-rule="evenodd" d="M4.30674 6.70635C5.20688 5.80649 6.42755 5.30097 7.70034 5.30097C8.97313 5.30097 10.1938 5.80649 11.0939 6.70635L12.5003 8.11155L13.9067 6.70635C14.3495 6.2479 14.8792 5.88223 15.4648 5.63066C16.0504 5.3791 16.6803 5.24669 17.3176 5.24115C17.955 5.23561 18.587 5.35706 19.1769 5.59841C19.7668 5.83975 20.3028 6.19617 20.7534 6.64685C21.2041 7.09754 21.5605 7.63347 21.8019 8.22337C22.0432 8.81327 22.1647 9.44533 22.1591 10.0827C22.1536 10.72 22.0212 11.3499 21.7696 11.9355C21.5181 12.5211 21.1524 13.0508 20.6939 13.4935L12.5003 21.6883L4.30674 13.4935C3.40688 12.5934 2.90137 11.3727 2.90137 10.0999C2.90137 8.82716 3.40688 7.60648 4.30674 6.70635Z" fill="#111827"/>
</svg>
