<svg width="25" height="25" viewBox="0 0 25 25" fill="none" xmlns="http://www.w3.org/2000/svg">
<path fill-rule="evenodd" clip-rule="evenodd" d="M11.9052 1.85845C12.0865 1.7549 12.2916 1.70044 12.5004 1.70044C12.7092 1.70044 12.9143 1.7549 13.0956 1.85845L15.1956 3.05845C15.3363 3.13451 15.4604 3.23795 15.5606 3.36267C15.6608 3.4874 15.735 3.63089 15.779 3.78472C15.8229 3.93855 15.8356 4.09961 15.8163 4.25843C15.7971 4.41724 15.7463 4.57061 15.6669 4.70951C15.5876 4.84841 15.4812 4.97003 15.3542 5.06723C15.2271 5.16444 15.0819 5.23525 14.9271 5.27551C14.7722 5.31578 14.6109 5.32468 14.4526 5.30169C14.2943 5.2787 14.1422 5.22429 14.0052 5.14165L12.5004 4.28245L10.9956 5.14165C10.8586 5.22429 10.7065 5.2787 10.5482 5.30169C10.3899 5.32468 10.2285 5.31578 10.0737 5.27551C9.91889 5.23525 9.77368 5.16444 9.64662 5.06723C9.51956 4.97003 9.41322 4.84841 9.33385 4.70951C9.25448 4.57061 9.20368 4.41724 9.18445 4.25843C9.16521 4.09961 9.17793 3.93855 9.22184 3.78472C9.26576 3.63089 9.33999 3.4874 9.44017 3.36267C9.54035 3.23795 9.66446 3.13451 9.8052 3.05845L11.9052 1.85845ZM7.242 5.90485C7.39976 6.18112 7.44136 6.50874 7.35765 6.81567C7.27394 7.1226 7.07178 7.38373 6.7956 7.54165L6.5196 7.70005L6.7956 7.85845C6.93633 7.93451 7.06044 8.03795 7.16062 8.16267C7.2608 8.2874 7.33504 8.43089 7.37895 8.58472C7.42287 8.73855 7.43558 8.89961 7.41635 9.05843C7.39711 9.21724 7.34631 9.37061 7.26694 9.50951C7.18757 9.64841 7.08123 9.77003 6.95417 9.86723C6.82711 9.96444 6.6819 10.0352 6.52707 10.0755C6.37224 10.1158 6.21093 10.1247 6.05261 10.1017C5.8943 10.0787 5.74218 10.0243 5.6052 9.94165L5.3004 9.76765V10.1001C5.3004 10.4183 5.17397 10.7235 4.94892 10.9486C4.72388 11.1736 4.41866 11.3001 4.1004 11.3001C3.78214 11.3001 3.47691 11.1736 3.25187 10.9486C3.02682 10.7235 2.9004 10.4183 2.9004 10.1001V7.70005C2.89972 7.48449 2.95737 7.27275 3.06722 7.08727C3.17707 6.90179 3.33504 6.74947 3.5244 6.64645L5.6052 5.45845C5.88147 5.30069 6.20908 5.25909 6.51601 5.34279C6.82295 5.4265 7.08408 5.62867 7.242 5.90485ZM17.7588 5.90485C17.9167 5.62867 18.1778 5.4265 18.4848 5.34279C18.7917 5.25909 19.1193 5.30069 19.3956 5.45845L21.4752 6.64645C21.6643 6.74992 21.8221 6.9023 21.932 7.08766C22.042 7.27301 22.1002 7.48452 22.1004 7.70005V10.1001C22.1004 10.4183 21.974 10.7235 21.7489 10.9486C21.5239 11.1736 21.2187 11.3001 20.9004 11.3001C20.5821 11.3001 20.2769 11.1736 20.0519 10.9486C19.8268 10.7235 19.7004 10.4183 19.7004 10.1001V9.76765L19.3956 9.94165C19.2586 10.0243 19.1065 10.0787 18.9482 10.1017C18.7899 10.1247 18.6285 10.1158 18.4737 10.0755C18.3189 10.0352 18.1737 9.96444 18.0466 9.86723C17.9196 9.77003 17.8132 9.64841 17.7338 9.50951C17.6545 9.37061 17.6037 9.21724 17.5844 9.05843C17.5652 8.89961 17.5779 8.73855 17.6218 8.58472C17.6658 8.43089 17.74 8.2874 17.8402 8.16267C17.9403 8.03795 18.0645 7.93451 18.2052 7.85845L18.4812 7.70005L18.2052 7.54165C17.929 7.38373 17.7268 7.1226 17.6431 6.81567C17.5594 6.50874 17.601 6.18112 17.7588 5.90485ZM9.3588 10.7049C9.51672 10.4287 9.77785 10.2265 10.0848 10.1428C10.3917 10.0591 10.7193 10.1007 10.9956 10.2585L12.5004 11.1177L14.0052 10.2585C14.1422 10.1758 14.2943 10.1214 14.4526 10.0984C14.6109 10.0754 14.7722 10.0843 14.9271 10.1246C15.0819 10.1649 15.2271 10.2357 15.3542 10.3329C15.4812 10.4301 15.5876 10.5517 15.6669 10.6906C15.7463 10.8295 15.7971 10.9829 15.8163 11.1417C15.8356 11.3005 15.8229 11.4616 15.779 11.6154C15.735 11.7692 15.6608 11.9127 15.5606 12.0374C15.4604 12.1622 15.3363 12.2656 15.1956 12.3417L13.7004 13.1961V14.9001C13.7004 15.2183 13.574 15.5235 13.3489 15.7486C13.1239 15.9736 12.8187 16.1001 12.5004 16.1001C12.1821 16.1001 11.8769 15.9736 11.6519 15.7486C11.4268 15.5235 11.3004 15.2183 11.3004 14.9001V13.1961L9.8052 12.3417C9.52901 12.1837 9.32685 11.9226 9.24314 11.6157C9.15943 11.3087 9.20103 10.9811 9.3588 10.7049ZM4.1004 13.7001C4.41866 13.7001 4.72388 13.8265 4.94892 14.0515C5.17397 14.2766 5.3004 14.5818 5.3004 14.9001V16.6041L6.7956 17.4585C6.93633 17.5345 7.06044 17.6379 7.16062 17.7627C7.2608 17.8874 7.33504 18.0309 7.37895 18.1847C7.42287 18.3386 7.43558 18.4996 7.41635 18.6584C7.39711 18.8172 7.34631 18.9706 7.26694 19.1095C7.18757 19.2484 7.08123 19.37 6.95417 19.4672C6.82711 19.5644 6.6819 19.6353 6.52707 19.6755C6.37224 19.7158 6.21093 19.7247 6.05261 19.7017C5.8943 19.6787 5.74218 19.6243 5.6052 19.5417L3.5052 18.3417C3.32153 18.2367 3.16886 18.0851 3.06265 17.9022C2.95644 17.7193 2.90046 17.5116 2.9004 17.3001V14.9001C2.9004 14.5818 3.02682 14.2766 3.25187 14.0515C3.47691 13.8265 3.78214 13.7001 4.1004 13.7001ZM20.9004 13.7001C21.2187 13.7001 21.5239 13.8265 21.7489 14.0515C21.974 14.2766 22.1004 14.5818 22.1004 14.9001V17.3001C22.1003 17.5116 22.0444 17.7193 21.9381 17.9022C21.8319 18.0851 21.6793 18.2367 21.4956 18.3417L19.3956 19.5417C19.2586 19.6243 19.1065 19.6787 18.9482 19.7017C18.7899 19.7247 18.6285 19.7158 18.4737 19.6755C18.3189 19.6353 18.1737 19.5644 18.0466 19.4672C17.9196 19.37 17.8132 19.2484 17.7338 19.1095C17.6545 18.9706 17.6037 18.8172 17.5844 18.6584C17.5652 18.4996 17.5779 18.3386 17.6218 18.1847C17.6658 18.0309 17.74 17.8874 17.8402 17.7627C17.9403 17.6379 18.0645 17.5345 18.2052 17.4585L19.7004 16.6041V14.9001C19.7004 14.5818 19.8268 14.2766 20.0519 14.0515C20.2769 13.8265 20.5821 13.7001 20.9004 13.7001ZM9.3588 20.3049C9.51672 20.0287 9.77785 19.8265 10.0848 19.7428C10.3917 19.6591 10.7193 19.7007 10.9956 19.8585L11.3004 20.0325V19.7001C11.3004 19.3818 11.4268 19.0766 11.6519 18.8515C11.8769 18.6265 12.1821 18.5001 12.5004 18.5001C12.8187 18.5001 13.1239 18.6265 13.3489 18.8515C13.574 19.0766 13.7004 19.3818 13.7004 19.7001V20.0325L14.0052 19.8585C14.1422 19.7758 14.2943 19.7214 14.4526 19.6984C14.6109 19.6754 14.7722 19.6843 14.9271 19.7246C15.0819 19.7649 15.2271 19.8357 15.3542 19.9329C15.4812 20.0301 15.5876 20.1517 15.6669 20.2906C15.7463 20.4295 15.7971 20.5829 15.8163 20.7417C15.8356 20.9005 15.8229 21.0616 15.779 21.2154C15.735 21.3692 15.6608 21.5127 15.5606 21.6374C15.4604 21.7622 15.3363 21.8656 15.1956 21.9417L13.1136 23.1321C12.9283 23.243 12.7164 23.3015 12.5004 23.3015C12.2844 23.3015 12.0725 23.243 11.8872 23.1321L9.8052 21.9417C9.52901 21.7837 9.32685 21.5226 9.24314 21.2157C9.15943 20.9087 9.20103 20.5811 9.3588 20.3049Z" fill="#111827"/>
</svg>
