<svg width="36" height="29" viewBox="0 0 36 29" fill="none" xmlns="http://www.w3.org/2000/svg">
<path d="M21.014 0.351074H17.7183C16.6256 0.351074 15.7397 1.23689 15.7397 2.32959V26.6713C15.7397 27.764 16.6256 28.6498 17.7183 28.6498H21.014C22.1067 28.6498 22.9925 27.764 22.9925 26.6713V2.32959C22.9925 1.23689 22.1067 0.351074 21.014 0.351074Z" fill="#76A9FA"/>
<path d="M12.5875 12.0673C12.5876 11.9572 12.5648 11.8484 12.5205 11.7476C12.4762 11.6469 12.4115 11.5565 12.3303 11.4821L8.6569 8.11623C8.41084 7.89067 8.08841 7.7668 7.75463 7.76958C7.42084 7.77236 7.10052 7.90159 6.85825 8.13121L1.42633 13.2783C0.903526 13.7736 0.849567 14.6034 1.33101 15.137C1.44863 15.2679 1.59128 15.374 1.75055 15.449C1.90982 15.524 2.08249 15.5664 2.25839 15.5736C2.43428 15.5808 2.60984 15.5527 2.77472 15.491C2.93959 15.4293 3.09044 15.3352 3.21839 15.2143L7.77496 10.8933H7.77796L11.7764 14.5566C11.8448 14.6221 11.9312 14.6659 12.0245 14.6824C12.1179 14.6989 12.214 14.6874 12.3008 14.6493C12.3876 14.6112 12.4612 14.5482 12.5122 14.4683C12.5632 14.3884 12.5895 14.2952 12.5875 14.2005V12.0673Z" fill="#3F81F6" stroke="#3F83F8" stroke-miterlimit="10"/>
<path d="M30.803 11.6597H27.5073C26.4146 11.6597 25.5288 12.5455 25.5288 13.6382V26.6712C25.5288 27.7639 26.4146 28.6497 27.5073 28.6497H30.803C31.8957 28.6497 32.7816 27.7639 32.7816 26.6712V13.6382C32.7816 12.5455 31.8957 11.6597 30.803 11.6597Z" fill="#3F81F6"/>
<path d="M11.2254 17.2109H7.92969C6.83698 17.2109 5.95117 18.0967 5.95117 19.1895V26.6712C5.95117 27.7639 6.83698 28.6497 7.92969 28.6497H11.2254C12.3181 28.6497 13.2039 27.7639 13.2039 26.6712V19.1895C13.2039 18.0967 12.3181 17.2109 11.2254 17.2109Z" fill="#3F81F6"/>
<path d="M35.5142 0.80063C35.3034 0.607381 35.0476 0.469983 34.77 0.40097C34.4925 0.331956 34.2021 0.333523 33.9254 0.405527L29.1698 1.62981C28.8989 1.69618 28.6499 1.83191 28.4473 2.02365C28.2448 2.21539 28.0956 2.45653 28.0144 2.72339C27.9406 2.98676 27.9402 3.26532 28.0133 3.52889C28.0864 3.79247 28.2303 4.03101 28.4293 4.21866L28.4749 4.26183C28.5041 4.28939 28.5273 4.3227 28.543 4.35967C28.5587 4.39664 28.5666 4.43646 28.5661 4.47662C28.5657 4.51678 28.5569 4.55642 28.5404 4.59302C28.5238 4.62963 28.4999 4.66241 28.4701 4.68931L25.7571 7.19003C25.2745 7.6349 25.6078 8.40891 26.2823 8.40891H29.8622C30.2908 8.41109 30.7046 8.25282 31.0224 7.96525L31.4606 7.56175C31.5226 7.50586 31.6033 7.47532 31.6867 7.4762C31.7701 7.47709 31.8502 7.50935 31.9109 7.56655C32.228 7.8664 32.6484 8.03259 33.0848 8.0306C33.2263 8.03046 33.3673 8.01294 33.5045 7.97844C33.7792 7.9132 34.0317 7.77662 34.2367 7.58249C34.4417 7.38837 34.5918 7.14358 34.6718 6.87287L35.9471 2.2995C36.0195 2.034 36.0174 1.7537 35.941 1.48931C35.8647 1.22492 35.717 0.986654 35.5142 0.80063Z" fill="#3F83F8"/>
</svg>